<?xml version="1.0" encoding="UTF-8"?>
<svg version="1.1" viewBox="0 0 1604 980" width="1280" height="1280" xmlns="http://www.w3.org/2000/svg">
<path transform="translate(133,204)" d="m0 0h2l6 22 7 14 9 12 9 10 13 11 14 9 12 7 24 10 15 5 26 6 30 4 13 1 71 1 32 2 31 4 27 6 20 6 20 8 13 7 12 8 4-2 12-12 9-7 1-2h-10l-16-6-10-6-7-7v-2l11 2 18 3 25 2h18l34-3 25-4 9 1 7 6 6 7 5 3 33 7 15 5 11 6 9 7 7 6 7 10 3 7-1 4-15-5-19-3h-11l-17 2-19 5-20 8-25 14-23 14-104 64-32 19-26 15-24 13-23 12-22 11-34 15-29 11-30 10-37 10-35 7-28 4-28 3-18 1h-65l-3-2 21-4 31-7 41-11 43-14 37-14 28-12 35-16 28-14 22-12 28-16 24-15 17-11 22-15 17-12 12-9 14-11 20-15 6-4 1-3-18-9-17-5-20-2h-15l-27 2-67 8-26 2h-44l-26-3-25-5-26-8-20-9-14-8-12-9-12-11-11-13-10-17-7-19-3-14-1-11v-13l2-17 6-25z" fill="#244CA4"/>
<path transform="translate(709,406)" d="m0 0 2 1v293l-1 1-69 1-2-2v-264l2-4 29-15 21-7z" fill="#F45A41"/>
<path transform="translate(591,462)" d="m0 0 2 3v235l-1 1-69 1-1-1-1-196 5-4 14-8 20-12 17-10z" fill="#F45A40"/>
<path transform="translate(473,531)" d="m0 0h2v170l-69 1-2-1v-134l6-4 23-11 20-10z" fill="#F45A41"/>
<path transform="translate(144,362)" d="m0 0 3 3 6 9 3 3v2l4 2 10 8 19 10 19 7 25 6 23 3 14 1h30l32-3 91-14 25-3 12-1h28l17 2 1 2-2 1-26 4-28 8-57 19-32 9-31 7-35 5-11 1h-39l-27-4-16-5-12-5-14-9-10-9-8-10-8-16-4-13-2-12z" fill="#EA4766"/>
<path transform="translate(353,587)" d="m0 0 4 1v113l-8 1h-62l-1-1v-92l24-7 41-14z" fill="#F45A40"/>
<path transform="translate(457,430)" d="m0 0 4 1-10 7-24 15-29 17-16 9-23 11-23 10-21 7-17 4-16 2h-23l-19-3-18-6-11-6-9-7-8-10-6-10v-3l10 2 18 4 21 3 11 1h36l28-4 36-8 35-10 32-11 26-10z" fill="#EA4766"/>
<path transform="translate(235,620)" d="m0 0h4v81l-6 1h-64l-1-1v-72l31-4z" fill="#F45A40"/>
<path transform="translate(144,362)" d="m0 0 3 3 6 9 3 3v2l4 2 10 8 19 10 19 7 25 6 9 2-1 3 5 5 1 9 2 4-1 5-2 4v3l2 1-1 4h-11l-22-4-18-6-13-7-12-9-7-7-9-13-7-16-4-20z" fill="#F86D65"/>
<path transform="translate(808,621)" d="m0 0h15l7 9 16 25 4 5v-38l1-1h15l1 11-1 55-5 1-10-1-3-3-23-34v-2h-2l1 14-1 25-4 1-12-1v-65z" fill="#264DA4"/>
<path transform="translate(1107,621)" d="m0 0h14l5 4 7 11 16 24v-37l1-2h15l1 1v36l-1 29h-15l-13-18-8-12-5-8-2-1 1 2v31l-1 6h-15l-1-31v-34z" fill="#284FA5"/>
<path transform="translate(868,507)" d="m0 0h32l8 2 8 7 3 6v12l-5 9-8 4h-2l14 24 1 3h-13l-6-2-12-21-1-3h-3v16l-1 9-1 1h-13l-2-1v-65zm17 13-1 1-1 11 1 5 8 1 8-2 3-4-1-8-3-3-6-1z" fill="#284FA5"/>
<path transform="translate(1329,621)" d="m0 0h32l9 2 8 7 3 8v9l-4 8-4 4-6 2 2 6 11 18-1 3-15-1-7-10-8-13-4-2v25h-16zm18 13-2 2v14l6 2 9-1 4-3v-10l-3-3z" fill="#264DA4"/>
<path transform="translate(188,468)" d="m0 0 10 2 18 4 21 3 11 1 28 1v1l-5 1 1 5 5 6 1 4 1 3 6 2-1 7 2 1h-2v2l2 1-4 1h-23l-19-3-18-6-11-6-9-7-8-10-6-10z" fill="#F86E66"/>
<path transform="translate(998,394)" d="m0 0h9l-3 5-10 12-9 11-3 4 2 5 11 13 9 12 3 5h-17l-4-2-12-16-7-9v-2h-2l1 5v23l-1 1h-15l-1-1v-65h16l1 1v26l9-11 10-13 3-3z" fill="#264EA5"/>
<path transform="translate(888,621)" d="m0 0h14l2 2v40l3 7 4 2h9l4-3 2-9 1-39h15l1 1v41l-2 9-5 8-6 5-4 2-6 1h-11l-10-3-7-7-4-10-1-8v-37z" fill="#284FA5"/>
<path transform="translate(970,507)" d="m0 0h5l3 4 11 31 11 30v2h-13l-4-1-4-11h-26l-2 11-5 1-12-1 1-5 12-33 9-26 1-1zm-4 19-4 10-4 11v2l17 1-3-11-5-13z" fill="#264EA5"/>
<path transform="translate(874,394)" d="m0 0 15 1 1 2v39l2 7 8 3 6-1 5-5 1-7 1-38h16v39l-2 12-6 8-6 5-6 2h-16l-10-4-7-9-3-11v-42z" fill="#254CA4"/>
<path transform="translate(1270,622)" d="m0 0h20l4 10 13 37 5 13 1 5-7 1-9-1-3-8v-3h-27l-3 11h-17l3-10 10-28zm9 19-7 19v3l6 1h10l-2-9-4-12-1-2z" fill="#274EA5"/>
<path transform="translate(1431,621)" d="m0 0 5 1 3 5 9 25 11 30 1 5-7 1-9-1-4-10v-2h-26l-3 12h-17l1-5 14-38 7-20 2-2zm-5 19-7 20v3l2 1h14l-2-9-5-14z" fill="#274EA5"/>
<path transform="translate(1048,622)" d="m0 0h19l5 12 18 50-1 4-14-1-3-5-2-6h-25l-3 10-1 1h-17l2-6 10-28 11-30zm9 18-8 20v3l16 1 1-2-7-21z" fill="#274EA5"/>
<path transform="translate(1167,393)" d="m0 0h10l11 4 5 5 4 8-1 3h-15l-6-6h-7l-2 3 1 5 6 4 13 5 8 6 4 7v9l-4 8-8 6-4 1h-16l-8-3-5-4-4-7v-7h15l5 7 2 1h6l3-3-1-6-10-5-12-5-6-5-3-7v-8l4-8 6-5z" fill="#264EA5"/>
<path transform="translate(825,393)" d="m0 0h8l9 2 7 5 5 10v3h-17l-3-5-2-1h-6l-2 1-1 4 3 5 19 8 8 7 2 4v11l-5 8-5 4-5 2-10 1-10-2-7-4-5-6-3-9 16-1 3 3 2 4 2 1h6l3-3-1-6-4-3-16-6-6-4-5-10v-7l4-8 6-5z" fill="#264EA5"/>
<path transform="translate(1041,393)" d="m0 0h8l9 2 7 5 5 9v4h-17l-3-5-2-1h-6l-3 1 2 8 9 4 14 7 6 7 1 2v12l-5 8-7 4-3 1h-17l-9-4-6-7-2-5v-4l15-1 4 5v2l9 1 3-3v-5l-5-4-16-6-8-7-3-9 1-7 4-7 7-5z" fill="#264EA5"/>
<path transform="translate(978,620)" d="m0 0h11l10 3 6 5 4 10-2 2h-14l-6-6-5-1-4 4 1 5 5 3 15 6 9 8 2 5v9l-3 6-4 5-6 3-4 1h-14l-10-4-7-8-2-7 3-2 14 1 4 6 2 1h6l2-1 1-6-1-4-9-3-14-6-7-8-1-4v-7l4-8 7-6z" fill="#274FA5"/>
<path transform="translate(807,507)" d="m0 0h41l1 5-1 8h-23l-1 13 22 1v12h-23v15h25l1 1v11l-1 1h-40l-1-1z" fill="#274FA5"/>
<path transform="translate(1090,394)" d="m0 0h23l18 1v12l-24 1-1 13h22l1 1v11h-23v15h25l1 12-3 1h-38l-1-1z" fill="#2850A6"/>
<path transform="translate(210,410)" d="m0 0h3v2l5-1h10l14 3-1 3 5 5 1 9 2 4-1 5-2 4v3l2 1-1 4h-11l-6-3h-5l-4-2-7-3 1-3-4-1-6-4v-2h-5l-2-2v-3l-3-1 1-8h-4l1-3 8-1 3 1v-3l3-1 2-2v2h2z" fill="#F45A40"/>
<path transform="translate(1183,621)" d="m0 0h52v12l-2 1h-16v53l-4 1-12-1v-53h-18z" fill="#244CA4"/>
<path transform="translate(253,479)" d="m0 0h23v1l-5 1 1 5 5 6 1 4 1 3 6 2-1 7 2 1h-2v2l2 1h-18l-4-1h-3l-2-1v-2l-6-1v2l-3-1-1-3-5-1v-2l-3-1-1-13 2-3 3-1 1-2z" fill="#F45A40"/>
</svg>
